<svg width="512" height="512" viewBox="0 0 512 512" fill="none" xmlns="http://www.w3.org/2000/svg">
<rect width="512" height="512" fill="#1F2937"/>
<path d="M66.1591 337.364V173.727H76.642V337.364H66.1591ZM101.443 222.818C100.676 216.341 97.5653 211.312 92.1108 207.733C86.6563 204.153 79.9659 202.364 72.0398 202.364C66.2443 202.364 61.1733 203.301 56.8267 205.176C52.5227 207.051 49.1563 209.629 46.7273 212.911C44.3409 216.192 43.1477 219.92 43.1477 224.097C43.1477 227.591 43.9787 230.595 45.6406 233.109C47.3452 235.581 49.5185 237.648 52.1605 239.31C54.8026 240.929 57.5724 242.271 60.4702 243.337C63.3679 244.359 66.0312 245.19 68.4602 245.83L81.7557 249.409C85.1648 250.304 88.9574 251.54 93.1335 253.116C97.3523 254.693 101.379 256.845 105.214 259.572C109.092 262.257 112.288 265.709 114.803 269.928C117.317 274.146 118.574 279.324 118.574 285.46C118.574 292.534 116.72 298.926 113.013 304.636C109.348 310.347 103.979 314.885 96.9048 318.251C89.8736 321.618 81.3295 323.301 71.2727 323.301C61.8977 323.301 53.7798 321.788 46.919 318.763C40.1009 315.737 34.7315 311.518 30.8111 306.107C26.9332 300.695 24.7386 294.409 24.2273 287.25H40.5909C41.017 292.193 42.679 296.284 45.5767 299.523C48.517 302.719 52.2244 305.105 56.6989 306.682C61.2159 308.216 66.0739 308.983 71.2727 308.983C77.3239 308.983 82.7571 308.003 87.5724 306.043C92.3878 304.04 96.2017 301.27 99.0142 297.733C101.827 294.153 103.233 289.977 103.233 285.205C103.233 280.858 102.018 277.321 99.5895 274.594C97.1605 271.866 93.9645 269.651 90.0014 267.946C86.0384 266.241 81.7557 264.75 77.1534 263.472L61.0455 258.869C50.8182 255.929 42.7216 251.732 36.7557 246.277C30.7898 240.822 27.8068 233.685 27.8068 224.864C27.8068 217.534 29.7884 211.142 33.7514 205.688C37.7571 200.19 43.1264 195.929 49.8594 192.903C56.6349 189.835 64.1989 188.301 72.5511 188.301C80.9886 188.301 88.4886 189.814 95.0511 192.839C101.614 195.822 106.813 199.913 110.648 205.112C114.526 210.311 116.571 216.213 116.784 222.818H101.443ZM135.433 255.801V247.875C142.549 247.875 147.514 246.384 150.326 243.401C153.181 240.418 154.609 235.432 154.609 228.443V207.989C154.609 202.108 155.163 197.016 156.271 192.712C157.422 188.408 159.275 184.849 161.832 182.037C164.389 179.224 167.798 177.136 172.059 175.773C176.321 174.409 181.583 173.727 187.848 173.727V186.256C182.904 186.256 179.005 187.023 176.15 188.557C173.338 190.091 171.335 192.477 170.142 195.716C168.991 198.912 168.416 203.003 168.416 207.989V233.557C168.416 236.881 167.968 239.906 167.074 242.634C166.221 245.361 164.623 247.705 162.279 249.665C159.936 251.625 156.591 253.138 152.244 254.203C147.94 255.268 142.336 255.801 135.433 255.801ZM187.848 337.364C181.583 337.364 176.321 336.682 172.059 335.318C167.798 333.955 164.389 331.866 161.832 329.054C159.275 326.241 157.422 322.683 156.271 318.379C155.163 314.075 154.609 308.983 154.609 303.102V282.648C154.609 275.659 153.181 270.673 150.326 267.69C147.514 264.707 142.549 263.216 135.433 263.216V255.29C142.336 255.29 147.94 255.822 152.244 256.888C156.591 257.953 159.936 259.466 162.279 261.426C164.623 263.386 166.221 265.73 167.074 268.457C167.968 271.185 168.416 274.21 168.416 277.534V303.102C168.416 308.088 168.991 312.179 170.142 315.375C171.335 318.571 173.338 320.936 176.15 322.47C179.005 324.047 182.904 324.835 187.848 324.835V337.364ZM135.433 263.216V247.875H150.518V263.216H135.433ZM491.614 255.29V263.216C484.497 263.216 479.511 264.707 476.656 267.69C473.844 270.673 472.438 275.659 472.438 282.648V303.102C472.438 308.983 471.862 314.075 470.712 318.379C469.604 322.683 467.771 326.241 465.214 329.054C462.658 331.866 459.249 333.955 454.987 335.318C450.726 336.682 445.463 337.364 439.199 337.364V324.835C444.142 324.835 448.02 324.047 450.832 322.47C453.688 320.936 455.69 318.571 456.841 315.375C458.034 312.179 458.631 308.088 458.631 303.102V277.534C458.631 274.21 459.057 271.185 459.909 268.457C460.804 265.73 462.423 263.386 464.767 261.426C467.111 259.466 470.435 257.953 474.739 256.888C479.085 255.822 484.71 255.29 491.614 255.29ZM439.199 173.727C445.463 173.727 450.726 174.409 454.987 175.773C459.249 177.136 462.658 179.224 465.214 182.037C467.771 184.849 469.604 188.408 470.712 192.712C471.862 197.016 472.438 202.108 472.438 207.989V228.443C472.438 235.432 473.844 240.418 476.656 243.401C479.511 246.384 484.497 247.875 491.614 247.875V255.801C484.71 255.801 479.085 255.268 474.739 254.203C470.435 253.138 467.111 251.625 464.767 249.665C462.423 247.705 460.804 245.361 459.909 242.634C459.057 239.906 458.631 236.881 458.631 233.557V207.989C458.631 203.003 458.034 198.912 456.841 195.716C455.69 192.477 453.688 190.091 450.832 188.557C448.02 187.023 444.142 186.256 439.199 186.256V173.727ZM491.614 247.875V263.216H476.528V247.875H491.614Z" fill="white"/>
<path d="M215.222 321H198.602L246.67 190.091H263.034L311.102 321H294.483L255.364 210.801H254.341L215.222 321ZM221.358 269.864H288.347V283.926H221.358V269.864ZM331.493 321V190.091H347.345V255.034H348.879L407.686 190.091H428.396L373.425 249.153L428.396 321H409.22L363.709 260.148L347.345 278.557V321H331.493Z" fill="#EAB308"/>
</svg>
